<svg width="16" height="16" viewBox="0 0 16 16" fill="none" xmlns="http://www.w3.org/2000/svg">
<g clip-path="url(#clip0_2543_883)">
<path d="M9 15.29C8.74 15.29 8.49 15.19 8.29 15L4.29 11H1C0.45 11 0 10.55 0 9.99999V5.99999C0 5.44999 0.45 4.99999 1 4.99999H4.29L8.29 0.999991C8.43025 0.859948 8.60888 0.764643 8.8033 0.726131C8.99771 0.687618 9.19919 0.707628 9.38223 0.783629C9.56528 0.85963 9.72167 0.988208 9.83163 1.1531C9.9416 1.31799 10.0002 1.51179 10 1.70999V14.3C10.0005 14.431 9.97498 14.5608 9.92479 14.6818C9.8746 14.8028 9.8008 14.9126 9.7077 15.0048C9.6146 15.097 9.50407 15.1697 9.38256 15.2186C9.26105 15.2676 9.13099 15.2919 9 15.29Z" fill="white"/>
<path d="M11.7695 9.77035C12.2195 9.32035 12.4995 8.69035 12.4995 8.00035C12.4995 7.31035 12.2195 6.69035 11.7695 6.23035M13.9395 11.8304C14.9095 10.8404 15.4995 9.49035 15.4995 8.00035C15.4995 6.48035 14.8795 5.11035 13.8895 4.11035" stroke="white" stroke-linecap="round"/>
</g>
<defs>
<clipPath id="clip0_2543_883">
<rect width="16" height="16" fill="white"/>
</clipPath>
</defs>
</svg>
