<svg width="8" height="14" viewBox="0 0 8 14" fill="none" xmlns="http://www.w3.org/2000/svg">
<path d="M7.70754 13.3635C7.89501 13.1759 8.00032 12.9216 8.00032 12.6565C8.00032 12.3913 7.89501 12.137 7.70754 11.9495L2.75754 6.99946L7.70754 2.04946C7.88969 1.86086 7.99049 1.60826 7.98821 1.34606C7.98593 1.08386 7.88076 0.833052 7.69535 0.647644C7.50995 0.462236 7.25913 0.357068 6.99694 0.35479C6.73474 0.352511 6.48214 0.453306 6.29354 0.635464L0.636536 6.29246C0.449065 6.47999 0.34375 6.7343 0.34375 6.99946C0.34375 7.26463 0.449065 7.51894 0.636536 7.70646L6.29354 13.3635C6.48106 13.5509 6.73537 13.6562 7.00054 13.6562C7.2657 13.6562 7.52001 13.5509 7.70754 13.3635Z" fill="#5B473D"/>
</svg>
