<svg width="16" height="16" viewBox="0 0 16 16" fill="none" xmlns="http://www.w3.org/2000/svg">
<g clip-path="url(#clip0_2543_894)">
<path d="M9 15.29C8.74 15.29 8.49 15.19 8.29 15L4.29 11H1C0.45 11 0 10.55 0 9.99999V5.99999C0 5.44999 0.45 4.99999 1 4.99999H4.29L8.29 0.999991C8.43025 0.859948 8.60888 0.764643 8.8033 0.726131C8.99771 0.687618 9.19919 0.707628 9.38223 0.783629C9.56528 0.85963 9.72167 0.988208 9.83163 1.1531C9.9416 1.31799 10.0002 1.51179 10 1.70999V14.3C10.0005 14.431 9.97498 14.5608 9.92479 14.6818C9.8746 14.8028 9.8008 14.9126 9.7077 15.0048C9.6146 15.097 9.50407 15.1697 9.38256 15.2186C9.26105 15.2676 9.13099 15.2919 9 15.29Z" fill="white"/>
<path d="M12.1478 6.14639C12.2415 6.05266 12.3687 6 12.5013 6C12.6339 6 12.761 6.05266 12.8548 6.14639L14.0018 7.29339L15.1478 6.14639C15.2417 6.05264 15.3689 6.00002 15.5016 6.00012C15.6343 6.00021 15.7615 6.05301 15.8553 6.14689C15.949 6.24078 16.0017 6.36806 16.0016 6.50075C16.0015 6.63343 15.9487 6.76064 15.8548 6.85439L14.7088 8.00039L15.8548 9.14639C15.9013 9.19282 15.9382 9.24794 15.9633 9.30862C15.9885 9.3693 16.0015 9.43434 16.0016 9.50004C16.0016 9.56574 15.9887 9.6308 15.9636 9.69151C15.9385 9.75223 15.9017 9.80741 15.8553 9.85389C15.8089 9.90038 15.7537 9.93727 15.6931 9.96245C15.6324 9.98764 15.5673 10.0006 15.5016 10.0007C15.4359 10.0007 15.3709 9.98782 15.3102 9.96273C15.2494 9.93763 15.1943 9.90082 15.1478 9.85439L14.0008 8.70739L12.8538 9.85439C12.7599 9.94815 12.6326 10.0008 12.4999 10.0007C12.3672 10.0006 12.24 9.94778 12.1463 9.85389C12.0525 9.76001 11.9999 9.63272 12 9.50004C12.0001 9.36736 12.0529 9.24015 12.1468 9.14639L13.2938 8.00039L12.1478 6.85439C12.1012 6.80795 12.0643 6.75277 12.0391 6.69203C12.0139 6.63128 12.0009 6.56616 12.0009 6.50039C12.0009 6.43463 12.0139 6.3695 12.0391 6.30876C12.0643 6.24801 12.1012 6.19284 12.1478 6.14639Z" fill="white"/>
</g>
<defs>
<clipPath id="clip0_2543_894">
<rect width="16" height="16" fill="white"/>
</clipPath>
</defs>
</svg>
